<svg width="24" height="24" viewBox="0 0 24 24" fill="none" xmlns="http://www.w3.org/2000/svg">
<rect x="7" y="19" width="1" height="1" fill="#535759"/>
<rect x="9" y="19" width="8" height="1" fill="#535759"/>
<rect x="5" y="4" width="12" height="1" fill="#535759"/>
<rect x="7" y="15" width="10" height="1" fill="#535759"/>
<rect x="2" y="4" width="1" height="1" fill="#535759"/>
<rect x="2" y="15" width="5" height="1" fill="#535759"/>
<rect x="2" y="7" width="1" height="8" fill="#535759"/>
<rect x="17" y="4" width="5" height="1" fill="#535759"/>
<rect x="21" y="5" width="1" height="8" fill="#535759"/>
<rect x="17" y="15" width="2" height="1" fill="#535759"/>
<rect x="21" y="15" width="1" height="1" fill="#535759"/>
<path d="M10.1274 10.88V11.5H9.57542V10.88H8.24742V10.48L9.63542 8.7H10.1274V10.428H10.4714V10.88H10.1274ZM8.86742 10.428H9.57542V9.524H9.56742L8.86742 10.42V10.428ZM13.0104 11.252L12.5464 11.52H11.4544L10.9904 11.252V8.948L11.4544 8.68H12.5464L13.0104 8.948V11.252ZM11.5504 9.16V11.04H12.4504V9.16H11.5504ZM15.3696 10.88V11.5H14.8176V10.88H13.4896V10.48L14.8776 8.7H15.3696V10.428H15.7136V10.88H15.3696ZM14.1096 10.428H14.8176V9.524H14.8096L14.1096 10.42V10.428Z" fill="#FF671D"/>
<path d="M10.1274 10.88V10.78H10.0274V10.88H10.1274ZM10.1274 11.5V11.6H10.2274V11.5H10.1274ZM9.57542 11.5H9.47542V11.6H9.57542V11.5ZM9.57542 10.88H9.67542V10.78H9.57542V10.88ZM8.24742 10.88H8.14742V10.98H8.24742V10.88ZM8.24742 10.48L8.16856 10.4185L8.14742 10.4456V10.48H8.24742ZM9.63542 8.7V8.6H9.58659L9.55656 8.63851L9.63542 8.7ZM10.1274 8.7H10.2274V8.6H10.1274V8.7ZM10.1274 10.428H10.0274V10.528H10.1274V10.428ZM10.4714 10.428H10.5714V10.328H10.4714V10.428ZM10.4714 10.88V10.98H10.5714V10.88H10.4714ZM8.86742 10.428H8.76742V10.528H8.86742V10.428ZM9.57542 10.428V10.528H9.67542V10.428H9.57542ZM9.57542 9.524H9.67542V9.424H9.57542V9.524ZM9.56742 9.524V9.424H9.51865L9.48862 9.46244L9.56742 9.524ZM8.86742 10.42L8.78862 10.3584L8.76742 10.3856V10.42H8.86742ZM10.0274 10.88V11.5H10.2274V10.88H10.0274ZM10.1274 11.4H9.57542V11.6H10.1274V11.4ZM9.67542 11.5V10.88H9.47542V11.5H9.67542ZM9.57542 10.78H8.24742V10.98H9.57542V10.78ZM8.34742 10.88V10.48H8.14742V10.88H8.34742ZM8.32628 10.5415L9.71428 8.76149L9.55656 8.63851L8.16856 10.4185L8.32628 10.5415ZM9.63542 8.8H10.1274V8.6H9.63542V8.8ZM10.0274 8.7V10.428H10.2274V8.7H10.0274ZM10.1274 10.528H10.4714V10.328H10.1274V10.528ZM10.3714 10.428V10.88H10.5714V10.428H10.3714ZM10.4714 10.78H10.1274V10.98H10.4714V10.78ZM8.86742 10.528H9.57542V10.328H8.86742V10.528ZM9.67542 10.428V9.524H9.47542V10.428H9.67542ZM9.57542 9.424H9.56742V9.624H9.57542V9.424ZM9.48862 9.46244L8.78862 10.3584L8.94622 10.4816L9.64622 9.58556L9.48862 9.46244ZM8.76742 10.42V10.428H8.96742V10.42H8.76742ZM13.0104 11.252L13.0604 11.3386L13.1104 11.3097V11.252H13.0104ZM12.5464 11.52V11.62H12.5732L12.5964 11.6066L12.5464 11.52ZM11.4544 11.52L11.4044 11.6066L11.4276 11.62H11.4544V11.52ZM10.9904 11.252H10.8904V11.3097L10.9404 11.3386L10.9904 11.252ZM10.9904 8.948L10.9404 8.86141L10.8904 8.89028V8.948H10.9904ZM11.4544 8.68V8.58H11.4276L11.4044 8.59341L11.4544 8.68ZM12.5464 8.68L12.5964 8.59341L12.5732 8.58H12.5464V8.68ZM13.0104 8.948H13.1104V8.89028L13.0604 8.86141L13.0104 8.948ZM11.5504 9.16V9.06H11.4504V9.16H11.5504ZM11.5504 11.04H11.4504V11.14H11.5504V11.04ZM12.4504 11.04V11.14H12.5504V11.04H12.4504ZM12.4504 9.16H12.5504V9.06H12.4504V9.16ZM12.9604 11.1654L12.4964 11.4334L12.5964 11.6066L13.0604 11.3386L12.9604 11.1654ZM12.5464 11.42H11.4544V11.62H12.5464V11.42ZM11.5044 11.4334L11.0404 11.1654L10.9404 11.3386L11.4044 11.6066L11.5044 11.4334ZM11.0904 11.252V8.948H10.8904V11.252H11.0904ZM11.0404 9.03459L11.5044 8.76659L11.4044 8.59341L10.9404 8.86141L11.0404 9.03459ZM11.4544 8.78H12.5464V8.58H11.4544V8.78ZM12.4964 8.76659L12.9604 9.03459L13.0604 8.86141L12.5964 8.59341L12.4964 8.76659ZM12.9104 8.948V11.252H13.1104V8.948H12.9104ZM11.4504 9.16V11.04H11.6504V9.16H11.4504ZM11.5504 11.14H12.4504V10.94H11.5504V11.14ZM12.5504 11.04V9.16H12.3504V11.04H12.5504ZM12.4504 9.06H11.5504V9.26H12.4504V9.06ZM15.3696 10.88V10.78H15.2696V10.88H15.3696ZM15.3696 11.5V11.6H15.4696V11.5H15.3696ZM14.8176 11.5H14.7176V11.6H14.8176V11.5ZM14.8176 10.88H14.9176V10.78H14.8176V10.88ZM13.4896 10.88H13.3896V10.98H13.4896V10.88ZM13.4896 10.48L13.4108 10.4185L13.3896 10.4456V10.48H13.4896ZM14.8776 8.7V8.6H14.8288L14.7988 8.63851L14.8776 8.7ZM15.3696 8.7H15.4696V8.6H15.3696V8.7ZM15.3696 10.428H15.2696V10.528H15.3696V10.428ZM15.7136 10.428H15.8136V10.328H15.7136V10.428ZM15.7136 10.88V10.98H15.8136V10.88H15.7136ZM14.1096 10.428H14.0096V10.528H14.1096V10.428ZM14.8176 10.428V10.528H14.9176V10.428H14.8176ZM14.8176 9.524H14.9176V9.424H14.8176V9.524ZM14.8096 9.524V9.424H14.7608L14.7308 9.46244L14.8096 9.524ZM14.1096 10.42L14.0308 10.3584L14.0096 10.3856V10.42H14.1096ZM15.2696 10.88V11.5H15.4696V10.88H15.2696ZM15.3696 11.4H14.8176V11.6H15.3696V11.4ZM14.9176 11.5V10.88H14.7176V11.5H14.9176ZM14.8176 10.78H13.4896V10.98H14.8176V10.78ZM13.5896 10.88V10.48H13.3896V10.88H13.5896ZM13.5685 10.5415L14.9565 8.76149L14.7988 8.63851L13.4108 10.4185L13.5685 10.5415ZM14.8776 8.8H15.3696V8.6H14.8776V8.8ZM15.2696 8.7V10.428H15.4696V8.7H15.2696ZM15.3696 10.528H15.7136V10.328H15.3696V10.528ZM15.6136 10.428V10.88H15.8136V10.428H15.6136ZM15.7136 10.78H15.3696V10.98H15.7136V10.78ZM14.1096 10.528H14.8176V10.328H14.1096V10.528ZM14.9176 10.428V9.524H14.7176V10.428H14.9176ZM14.8176 9.424H14.8096V9.624H14.8176V9.424ZM14.7308 9.46244L14.0308 10.3584L14.1884 10.4816L14.8884 9.58556L14.7308 9.46244ZM14.0096 10.42V10.428H14.2096V10.42H14.0096Z" fill="#FF671D"/>
</svg>
